<svg width="32" height="32" viewBox="0 0 32 32" fill="none" xmlns="http://www.w3.org/2000/svg">
<g clip-path="url(#clip0_8_47)">
<path d="M8.36002 27.4801C9.76651 27.4801 10.9067 26.3399 10.9067 24.9334C10.9067 23.5269 9.76651 22.3867 8.36002 22.3867C6.95354 22.3867 5.81335 23.5269 5.81335 24.9334C5.81335 26.3399 6.95354 27.4801 8.36002 27.4801Z" stroke="black" stroke-width="1.5" stroke-miterlimit="10"/>
<path d="M22.36 27.4801C23.7665 27.4801 24.9067 26.3399 24.9067 24.9334C24.9067 23.5269 23.7665 22.3867 22.36 22.3867C20.9535 22.3867 19.8134 23.5269 19.8134 24.9334C19.8134 26.3399 20.9535 27.4801 22.36 27.4801Z" stroke="black" stroke-width="1.5" stroke-miterlimit="10"/>
<path d="M19.8133 24.9333H10.9067" stroke="black" stroke-width="1.5" stroke-miterlimit="10"/>
<path d="M24.9067 24.9333H30V19.3866C30.0014 18.8052 29.8037 18.2407 29.4399 17.7871C29.076 17.3335 28.5679 17.0181 28 16.8933L24.9067 16.2666C24.6677 16.2271 24.4375 16.1459 24.2267 16.0266C23.7512 15.7869 23.3673 15.3983 23.1333 14.92L22.9067 14.4533C22.371 13.3902 21.5493 12.4975 20.5342 11.8757C19.519 11.2538 18.3505 10.9275 17.16 10.9333H12.2133C10.7015 10.9378 9.22535 11.3932 7.97366 12.2411C6.72197 13.089 5.75161 14.291 5.18667 15.6933C5.00257 16.1714 4.67925 16.5833 4.25851 16.8757C3.83777 17.1681 3.33898 17.3275 2.82667 17.3333H2V24.9333H5.81333" stroke="black" stroke-width="1.5" stroke-miterlimit="10"/>
<path d="M24.1733 16.0266H13.4533" stroke="black" stroke-width="1.5" stroke-miterlimit="10"/>
<path d="M17.28 10.9467H12.1866L13.4533 5.85339H16L17.28 10.9467Z" stroke="black" stroke-width="1.5" stroke-miterlimit="10"/>
</g>
<defs>
<clipPath id="clip0_8_47">
<rect width="32" height="32" fill="white"/>
</clipPath>
</defs>
</svg>
